<svg width="44px" height="14px" viewBox="0 0 44 14" version="1.1" xmlns="http://www.w3.org/2000/svg" xmlns:xlink="http://www.w3.org/1999/xlink">
    <defs></defs>
    <g id="UUmarket-1200px" stroke="none" stroke-width="1" fill="none" fill-rule="evenodd">
        <g id="Home-UUmarket-1200px" transform="translate(-366.000000, -4517.000000)" fill="#D5D5D5">
            <g id="Group-2" transform="translate(0.000000, 4459.000000)">
                <g id="Group" transform="translate(20.000000, 17.000000)">
                    <g id="Payment" transform="translate(346.000000, 38.000000)">
                        <g id="Imported-Layers" transform="translate(0.000000, 3.000000)">
                            <path d="M12.5023377,0.247554745 L9.01916883,9.48939416 L8.64597403,7.61114599 C7.89937662,5.64067153 6.06607792,3.83043066 4.00488312,2.99829927 L6.90280519,13.7802409 L10.6692468,13.7777372 L16.2732468,0.247554745 L12.5023377,0.247554745" id="Fill-1"></path>
                            <polyline id="Fill-2" points="15.4878442 13.7920438 17.7139221 0.236313869 21.2725714 0.236313869 19.0464416 13.7920438 15.4878442 13.7920438"></polyline>
                            <path d="M31.954961,0.568941606 C31.2513247,0.296810219 30.1438442,0 28.766026,0 C25.2477922,0 22.7711169,1.83956934 22.7496104,4.47407299 C22.7282597,6.42211679 24.5178701,7.50926277 25.8670649,8.15673723 C27.2535584,8.82086861 27.7196883,9.24546715 27.713974,9.83878102 C27.7045195,10.7467883 26.6073247,11.1629562 25.584,11.1629562 C24.1592727,11.1629562 23.4022857,10.9578613 22.2320519,10.4519708 L21.774026,10.236146 L21.2765195,13.2704161 C22.1064416,13.6480073 23.6440519,13.9757299 25.2414545,13.9928978 C28.9807273,13.9928978 31.4101818,12.1754526 31.439013,9.36283212 C31.4508052,7.81741606 30.5031169,6.64647445 28.4493506,5.67955474 C27.205974,5.05062774 26.4427532,4.63466423 26.4515844,3.99786861 C26.4524156,3.43480292 27.0963117,2.83167883 28.4900779,2.83167883 C29.6539221,2.81308029 30.4960519,3.07724088 31.1535065,3.35243796 L31.4730909,3.50735766 L31.954961,0.568941606" id="Fill-3"></path>
                            <path d="M36.6934026,8.98580292 C36.9883117,8.20594161 38.1112208,5.19675912 38.1112208,5.19675912 C38.0904935,5.23252555 38.4037922,4.41143066 38.5833247,3.90349635 L38.8234805,5.07275182 C38.8234805,5.07275182 39.5061818,8.30782482 39.6475325,8.98580292 L36.6934026,8.98580292 L36.6934026,8.98580292 Z M41.0834805,0.249854015 L38.3338182,0.249854015 C37.4806234,0.249854015 36.8414026,0.48989781 36.4685195,1.37337956 L31.1829091,13.7967445 L34.9212468,13.7967445 C34.9212468,13.7967445 35.5310649,12.1254818 35.6695584,11.7588248 C36.0772987,11.7588248 39.7081039,11.7657226 40.2272727,11.7657226 C40.332987,12.238146 40.6606234,13.7967445 40.6606234,13.7967445 L43.9632727,13.7967445 L41.0834805,0.249854015 L41.0834805,0.249854015 Z" id="Fill-4"></path>
                            <path d="M5.78571429,0.238408759 L0.0477402597,0.238408759 L0,0.519072993 C3.9481039,1.49667153 7.18062338,3.61133577 8.64628571,7.61083942 L7.39932468,1.3819635 C7.18441558,0.52280292 6.55937662,0.268248175 5.78571429,0.238408759" id="Fill-5"></path>
                        </g>
                    </g>
                </g>
            </g>
        </g>
    </g>
</svg>