<svg width="35px" height="21px" viewBox="0 0 35 21" version="1.1" xmlns="http://www.w3.org/2000/svg" xmlns:xlink="http://www.w3.org/1999/xlink">
    <g id="UUmarket-1200px" stroke="none" stroke-width="1" fill="none" fill-rule="evenodd">
        <g id="Home-UUmarket-1200px" transform="translate(-429.000000, -4514.000000)" fill="#D5D5D5">
            <g id="Group-2" transform="translate(0.000000, 4459.000000)">
                <g id="Group" transform="translate(20.000000, 17.000000)">
                    <g id="Payment" transform="translate(346.000000, 38.000000)">
                        <path d="M96.6084,16.0867 L96.6462,16.0867 C96.6588,16.0867 96.6763,16.086 96.6889,16.0916 C96.6987,16.0979 96.705,16.1098 96.705,16.1224 C96.705,16.1357 96.7001,16.1497 96.6889,16.1567 C96.6763,16.163 96.6602,16.163 96.6476,16.163 L96.6084,16.163 L96.6084,16.0867 L96.6084,16.0867 Z M96.6084,16.2127 L96.6588,16.2127 L96.7036,16.3289 L96.7806,16.3289 L96.726,16.1994 C96.7575,16.1861 96.7778,16.1567 96.7778,16.1238 C96.7778,16.0944 96.7624,16.0643 96.7407,16.0489 C96.7176,16.0321 96.6903,16.0321 96.6644,16.0321 L96.5398,16.0321 L96.5398,16.3289 L96.6084,16.3289 L96.6084,16.2127 L96.6084,16.2127 Z M96.6546,16.4374 C96.7953,16.4374 96.9101,16.3219 96.9101,16.1826 C96.9101,16.0412 96.7953,15.9271 96.6546,15.9271 C96.5139,15.9271 96.3991,16.0412 96.3991,16.1826 C96.3991,16.3219 96.5139,16.4374 96.6546,16.4374 L96.6546,16.4374 Z M96.3186,16.1826 C96.3186,15.9964 96.4684,15.8459 96.6546,15.8459 C96.8394,15.8459 96.9899,15.9964 96.9899,16.1826 C96.9899,16.3667 96.8394,16.5186 96.6546,16.5186 C96.4684,16.5186 96.3186,16.3667 96.3186,16.1826 L96.3186,16.1826 Z M96.6084,12.6518 L96.6441,12.6518 C96.6574,12.6518 96.6763,12.649 96.6889,12.6553 C96.6987,12.6637 96.705,12.6742 96.705,12.6868 C96.705,12.6994 96.7001,12.7134 96.6889,12.7211 C96.6749,12.7267 96.6602,12.7267 96.6462,12.7267 L96.6084,12.7267 L96.6084,12.6518 L96.6084,12.6518 Z M96.6084,12.7785 L96.6588,12.7785 L96.7036,12.8919 L96.7806,12.8919 L96.726,12.7638 C96.7575,12.7512 96.7778,12.7211 96.7778,12.6875 C96.7778,12.6581 96.7624,12.628 96.7393,12.6147 C96.7176,12.5993 96.6903,12.5993 96.6644,12.5993 L96.5398,12.5993 L96.5398,12.8919 L96.6084,12.8919 L96.6084,12.7785 L96.6084,12.7785 Z M96.3977,12.7463 C96.3977,12.6063 96.5125,12.4915 96.6532,12.4915 C96.7953,12.4915 96.908,12.6063 96.908,12.7463 C96.908,12.8856 96.7953,13.0011 96.6532,13.0011 C96.5125,13.0011 96.3977,12.8856 96.3977,12.7463 L96.3977,12.7463 Z M96.6532,13.0823 C96.8394,13.0823 96.9899,12.9304 96.9899,12.7463 C96.9899,12.5608 96.8394,12.411 96.6532,12.411 C96.467,12.411 96.3186,12.5608 96.3186,12.7463 C96.3186,12.9304 96.467,13.0823 96.6532,13.0823 L96.6532,13.0823 Z M81.5752,8.8354 C81.4415,10.0954 81.2035,11.3687 81.0166,12.628 L80.9683,12.9017 L82.0393,12.9017 C82.4222,10.4146 82.5146,9.9295 83.1138,9.9904 C83.2104,9.4815 83.3882,9.0349 83.5205,8.8109 C83.0732,8.7192 82.8212,8.9712 82.4957,9.4521 C82.5202,9.2456 82.5678,9.0419 82.558,8.8354 L81.5752,8.8354 L81.5752,8.8354 Z M90.9286,8.8354 C90.7949,10.0954 90.5569,11.3687 90.3707,12.628 L90.321,12.9017 L91.3913,12.9017 C91.7742,10.4146 91.8673,9.9295 92.4672,9.9904 C92.5631,9.4815 92.7402,9.0349 92.8746,8.8109 C92.4259,8.7192 92.1753,8.9712 91.847,9.4521 C91.8736,9.2456 91.9205,9.0419 91.9128,8.8354 L90.9286,8.8354 L90.9286,8.8354 Z M93.6824,11.1608 C93.6824,10.3614 94.0254,9.7951 94.5126,9.7951 C94.8794,9.7951 95.0789,10.0758 95.0789,10.591 C95.0789,11.3974 94.7289,11.9623 94.2298,11.9623 C93.8658,11.9623 93.6824,11.6928 93.6824,11.1608 L93.6824,11.1608 Z M96.6245,7.9023 L95.5675,7.9023 L95.3316,9.3464 C95.0383,8.9621 94.7247,8.7927 94.3103,8.7927 C93.366,8.7927 92.568,9.933 92.568,11.2854 C92.568,12.3011 93.0825,12.9724 93.8602,12.9724 C94.2529,12.9724 94.5532,12.8359 94.8465,12.523 L94.7968,12.9017 L95.809,12.9017 L96.6245,7.9023 L96.6245,7.9023 Z M72.765,10.1213 C72.765,10.6358 73.0142,10.99 73.5798,11.2567 C74.0124,11.4604 74.0803,11.5206 74.0803,11.7054 C74.0803,11.9595 73.8885,12.0729 73.4657,12.0729 C73.1465,12.0729 72.849,12.0239 72.5067,11.9133 C72.5067,11.9133 72.3667,12.8086 72.3604,12.852 C72.6019,12.9045 72.8196,12.9535 73.4727,12.9724 C74.6025,12.9724 75.124,12.5419 75.124,11.6137 C75.124,11.0544 74.9056,10.7261 74.3687,10.4804 C73.9214,10.2739 73.8689,10.2277 73.8689,10.0387 C73.8689,9.8175 74.0467,9.7055 74.3932,9.7055 C74.6032,9.7055 74.8902,9.7279 75.1618,9.7671 L75.3144,8.8242 C75.0372,8.7808 74.6172,8.7458 74.3722,8.7458 C73.1752,8.7458 72.7608,9.3702 72.765,10.1213 L72.765,10.1213 Z M79.8763,10.3964 C79.8826,10.3117 79.9897,9.6705 79.3814,9.6705 C79.0433,9.6705 78.8011,9.9295 78.701,10.3964 L79.8763,10.3964 L79.8763,10.3964 Z M80.6526,11.7957 C80.2704,11.9742 79.9267,12.0526 79.5459,12.0526 C78.9264,12.0526 78.5491,11.8062 78.6212,11.2168 L80.7401,11.2168 C80.8318,10.8052 80.8703,10.5161 80.8703,10.2172 C80.8703,9.317 80.3103,8.7458 79.4332,8.7458 C78.3615,8.7458 77.5712,9.7685 77.5712,11.158 C77.5712,12.3494 78.1928,12.971 79.3835,12.9724 C79.7573,12.9738 80.1094,12.9192 80.4741,12.8072 L80.6526,11.7957 L80.6526,11.7957 Z M77.203,11.9406 C77.1309,11.9665 77.0364,11.977 76.9146,11.977 C76.6612,11.977 76.5478,11.886 76.5478,11.6781 C76.5499,11.5493 76.7263,10.5868 76.8509,9.8133 L77.3976,9.8133 L77.5432,8.8354 L76.9972,8.8354 L77.1204,8.2201 L76.0578,8.2201 C76.0578,8.2201 75.6553,10.6155 75.5937,10.9956 C75.5265,11.4275 75.439,11.8993 75.4467,12.0799 C75.4467,12.6567 75.7456,12.9724 76.2923,12.9724 C76.5401,12.9724 76.7683,12.9332 77.0602,12.8401 L77.203,11.9406 L77.203,11.9406 Z M90.1012,10.7429 C90.1558,10.4034 90.1908,10.1458 90.1887,9.9365 C90.1894,9.1581 89.7029,8.7458 88.7838,8.7458 C88.3883,8.7458 88.0362,8.8039 87.5035,8.9607 C87.5035,8.9607 87.3663,9.807 87.3551,9.8742 C87.5336,9.8161 87.9641,9.6866 88.4877,9.6922 C88.9875,9.6922 89.1744,9.7916 89.1744,10.0618 C89.1744,10.1339 89.1646,10.192 89.1324,10.3257 C88.9721,10.3047 88.8174,10.2935 88.6963,10.2935 C87.5084,10.2935 86.8175,10.8696 86.8175,11.8608 C86.8175,12.5188 87.2151,12.9724 87.7947,12.9724 C88.284,12.9724 88.6459,12.8128 88.9161,12.4803 L88.8951,12.9017 L89.782,12.9017 C89.81,12.5951 90.0095,11.3302 90.1012,10.7429 L90.1012,10.7429 Z M89.0036,11.0901 C88.8916,11.0775 88.8426,11.0733 88.7663,11.0733 C88.1587,11.0733 87.8528,11.2812 87.8528,11.6914 C87.8528,11.9455 88.0019,12.1072 88.2364,12.1072 C88.6711,12.1072 88.9854,11.6914 89.0036,11.0901 L89.0036,11.0901 Z M85.9208,7.7777 C84.5026,7.7777 83.5114,9.0251 83.5114,10.8136 C83.5114,12.1443 84.2282,12.9724 85.3804,12.9724 C85.6772,12.9724 85.932,12.9332 86.3261,12.8247 L86.5137,11.6844 C86.1588,11.8608 85.8683,11.942 85.6044,11.942 C84.9828,11.942 84.6069,11.4835 84.6069,10.7247 C84.6069,9.625 85.1655,8.8515 85.9649,8.8515 C86.2624,8.8515 86.5396,8.9299 86.9218,9.1217 L87.0968,8.036 C86.9393,7.9758 86.3877,7.7777 85.9208,7.7777 L85.9208,7.7777 Z M72.2624,10.7429 C72.3163,10.4034 72.3506,10.1458 72.3492,9.9365 C72.3506,9.1581 71.8634,8.7458 70.945,8.7458 C70.5495,8.7458 70.1974,8.8039 69.664,8.9607 C69.664,8.9607 69.5268,9.807 69.5163,9.8742 C69.6934,9.8161 70.126,9.6866 70.6482,9.6922 C71.148,9.6922 71.3342,9.7916 71.3342,10.0618 C71.3342,10.1339 71.3258,10.192 71.2936,10.3257 C71.134,10.3047 70.9772,10.2935 70.8575,10.2935 C69.6696,10.2935 68.9787,10.8696 68.9787,11.8608 C68.9787,12.5188 69.3763,12.9724 69.9559,12.9724 C70.4459,12.9724 70.8071,12.8128 71.0773,12.4803 L71.057,12.9017 L71.9432,12.9017 C71.9705,12.5951 72.1707,11.3302 72.2624,10.7429 L72.2624,10.7429 Z M71.1648,11.0901 C71.0521,11.0775 71.0031,11.0733 70.9261,11.0733 C70.3199,11.0733 70.0126,11.2812 70.0126,11.6914 C70.0126,11.9455 70.1624,12.1072 70.3969,12.1072 C70.833,12.1072 71.1466,11.6914 71.1648,11.0901 L71.1648,11.0901 Z M69.1754,7.9023 L67.5136,7.9023 L66.4755,10.997 L66.4328,7.9023 L64.8942,7.9023 L64.0584,12.9017 L65.0587,12.9017 L65.7041,9.0804 L65.7937,12.9017 L66.5224,12.9017 L67.8916,9.0587 L67.2777,12.9017 L68.3494,12.9017 L69.1754,7.9023 L69.1754,7.9023 Z M97.6787,10.374 C97.6787,16.1049 93.0335,20.7508 87.304,20.7508 C84.9562,20.7508 82.7911,19.9696 81.0523,18.6557 L81.053,18.6557 C82.5125,17.3012 83.6122,15.5673 84.1988,13.6122 L83.2328,13.6122 C82.6665,15.3419 81.6571,16.8721 80.3404,18.0656 C79.0223,16.8721 78.0136,15.3419 77.4459,13.6122 L76.4813,13.6122 C77.0665,15.5673 78.1676,17.3012 79.6257,18.6557 C77.8883,19.9696 75.7232,20.7508 73.3747,20.7508 C67.6445,20.7508 63,16.1049 63,10.374 C63,4.6459 67.6445,0 73.3747,0 C75.7232,0 77.8883,0.7791 79.6257,2.0944 C78.0759,3.5329 76.9272,5.4019 76.3756,7.5082 L77.3311,7.5082 C77.8701,5.6273 78.9278,3.9641 80.3404,2.6852 C81.7509,3.9641 82.8086,5.6273 83.349,7.5082 L84.3045,7.5082 C83.7522,5.4019 82.6042,3.5329 81.053,2.0944 L81.0523,2.0944 C82.7911,0.7791 84.9562,0 87.304,0 C93.0335,0 97.6787,4.6459 97.6787,10.374 L97.6787,10.374 Z" id="Imported-Layers"></path>
                    </g>
                </g>
            </g>
        </g>
    </g>
</svg>