<svg width="26px" height="25px" viewBox="0 0 26 25" version="1.1" xmlns="http://www.w3.org/2000/svg" xmlns:xlink="http://www.w3.org/1999/xlink">
    <g id="UUmarket-1200px" stroke="none" stroke-width="1" fill="none" fill-rule="evenodd">
        <g id="Home-UUmarket-1200px" transform="translate(-907.000000, -3667.000000)" fill="#FE5621">
            <g id="Directory" transform="translate(21.000000, 2890.000000)">
                <g id="Fill-226" transform="translate(886.000000, 777.000000)">
                    <path d="M20.6057897,8.33333333 L20.6057897,9.72222222 L19.2576415,9.72222222 L19.2576415,8.90972222 L19.817123,8.33333333 L20.6057897,8.33333333 Z M16.9563526,7.35138889 C16.7029008,7.61111111 16.5613452,7.96527778 16.5613452,8.33333333 L16.5613452,11.1111111 L7.12430818,11.1111111 C4.89447114,11.1111111 3.07986374,9.24305556 3.07986374,6.94444444 C3.07986374,5.13611111 4.21096003,3.60833333 5.77616003,3.03472222 L5.77616003,6.94444444 L8.47245633,6.94444444 L8.47245633,2.77777778 L9.82060448,2.77777778 L9.82060448,5.55555556 L12.5169008,5.55555556 L12.5169008,2.77777778 L21.3958045,2.77777778 L16.9563526,7.35138889 Z M25.895923,0.858333333 C25.68696,0.338888889 25.194886,0 24.6502341,0 L7.12430818,0 C3.40746374,0 0.38356744,3.11527778 0.38356744,6.94444444 C0.38356744,10.7736111 3.40746374,13.8888889 7.12430818,13.8888889 L9.82060448,13.8888889 L9.82060448,17.0083333 L3.07986374,18.9930556 L3.07986374,15.2777778 L0.38356744,15.2777778 L0.38356744,25 L3.07986374,25 L3.07986374,21.8805556 L11.5394934,19.3916667 C12.1178489,19.2208333 12.5169008,18.6763889 12.5169008,18.0555556 L12.5169008,13.8888889 L17.9094934,13.8888889 C18.6536711,13.8888889 19.2576415,13.2666667 19.2576415,12.5 L21.9539378,12.5 C22.6981156,12.5 23.302086,11.8777778 23.302086,11.1111111 L23.302086,6.94444444 C23.302086,6.34722222 22.9326934,5.84861111 22.4190489,5.65277778 L25.6033748,2.37083333 C25.9889452,1.975 26.1035378,1.37638889 25.895923,0.858333333 L25.895923,0.858333333 Z"></path>
                </g>
            </g>
        </g>
    </g>
</svg>