<svg width="26px" height="24px" viewBox="0 0 26 24" version="1.1" xmlns="http://www.w3.org/2000/svg" xmlns:xlink="http://www.w3.org/1999/xlink">
    <g id="UUmarket-1200px" stroke="none" stroke-width="1" fill="none" fill-rule="evenodd">
        <g id="Home-UUmarket-1200px" transform="translate(-617.000000, -3668.000000)" fill="#FE5621">
            <g id="Directory" transform="translate(21.000000, 2890.000000)">
                <g id="Fill-36" transform="translate(596.000000, 778.000000)">
                    <path d="M18.9647768,15.6 L7.24174946,15.6 L7.24174946,14.0976 C8.43632595,13.7628 10.7891375,13.2 13.1032632,13.2 C15.4173888,13.2 17.7702004,13.7628 18.9647768,14.0976 L18.9647768,15.6 Z M8.4140522,7.2 L17.7924741,7.2 L17.7924741,11.3412 C16.4642551,11.058 14.7937237,10.8 13.1032632,10.8 C11.4116303,10.8 9.7422712,11.058 8.4140522,11.3412 L8.4140522,7.2 Z M13.1032632,2.4 C14.7421424,2.4 17.7924741,2.4 17.7924741,3.6 L17.7924741,4.8 L8.4140522,4.8 L8.4140522,3.6 C8.4140522,2.4 11.4643839,2.4 13.1032632,2.4 L13.1032632,2.4 Z M25.9985933,8.4 L21.3093823,8.4 L21.3093823,10.8 L22.4816851,10.8 L22.4816851,13.2 L21.3093823,13.2 C21.3093823,12.6828 20.9869991,12.2244 20.5075272,12.0612 C20.4817366,12.0528 20.3492664,12.0084 20.1370796,11.9424 L20.1370796,3.6 C20.1370796,0 15.561582,0 13.1032632,0 C10.6449443,0 6.06944673,0 6.06944673,3.6 L6.06944673,11.9424 C5.85843223,12.0084 5.72478972,12.0528 5.69899906,12.0612 C5.21952724,12.2244 4.89714399,12.6828 4.89714399,13.2 L3.72484125,13.2 L3.72484125,10.8 L4.89714399,10.8 L4.89714399,8.4 L0.207933039,8.4 L0.207933039,10.8 L1.38023578,10.8 L1.38023578,14.4 C1.38023578,15.0624 1.9054274,15.6 2.55253851,15.6 L4.89714399,15.6 L4.89714399,16.8 C4.89714399,17.4624 5.42233562,18 6.06944673,18 L11.9309604,18 L11.9309604,21.6 L8.4140522,21.6 L8.4140522,24 L17.7924741,24 L17.7924741,21.6 L14.2755659,21.6 L14.2755659,18 L20.1370796,18 C20.7841907,18 21.3093823,17.4624 21.3093823,16.8 L21.3093823,15.6 L23.6539878,15.6 C24.3010989,15.6 24.8262905,15.0624 24.8262905,14.4 L24.8262905,10.8 L25.9985933,10.8 L25.9985933,8.4 Z"></path>
                </g>
            </g>
        </g>
    </g>
</svg>