<svg width="18px" height="15px" viewBox="0 0 18 15" version="1.1" xmlns="http://www.w3.org/2000/svg" xmlns:xlink="http://www.w3.org/1999/xlink">
    <g id="UUmarket-1200px" stroke="none" stroke-width="1" fill="none" fill-rule="evenodd">
        <g id="Home-UUmarket-1200px" transform="translate(-37.000000, -2611.000000)" fill="#FE5621">
            <g id="Group" transform="translate(21.000000, 2280.000000)">
                <g id="Fill-2206" transform="translate(16.000000, 331.000000)">
                    <path d="M14.0445,13.0909091 L8.33931818,13.0909091 L4.90868182,11.7188182 L4.90868182,7.36363636 L5.72686364,7.36363636 C6.05413636,7.36363636 6.35031818,7.16890909 6.47877273,6.86781818 L8.72140909,1.63636364 L9.81777273,1.63636364 L9.81777273,4.90909091 C9.81777273,5.36072727 10.1843182,5.72727273 10.6359545,5.72727273 L15.3830455,5.72727273 L14.0445,13.0909091 Z M3.27231818,13.0909091 L1.63595455,13.0909091 L1.63595455,6.54545455 L3.27231818,6.54545455 L3.27231818,13.0909091 Z M16.9915909,4.38463636 C16.8361364,4.19890909 16.6062273,4.09090909 16.3632273,4.09090909 L11.4541364,4.09090909 L11.4541364,0.818181818 C11.4541364,0.366545455 11.0884091,0 10.6359545,0 L8.18140909,0 C7.85495455,0 7.55877273,0.194727273 7.43031818,0.495 L5.18768182,5.72727273 L4.90868182,5.72727273 C4.90868182,5.27563636 4.54295455,4.90909091 4.0905,4.90909091 L0.817772727,4.90909091 C0.366136364,4.90909091 -0.000409090909,5.27563636 -0.000409090909,5.72727273 L-0.000409090909,13.9090909 C-0.000409090909,14.3607273 0.366136364,14.7272727 0.817772727,14.7272727 L4.0905,14.7272727 C4.54295455,14.7272727 4.90868182,14.3607273 4.90868182,13.9090909 L4.90868182,13.482 L7.87786364,14.6691818 C7.97440909,14.7076364 8.0775,14.7272727 8.18140909,14.7272727 L14.7268636,14.7272727 C15.1228636,14.7272727 15.4615909,14.4441818 15.5319545,14.0555455 L17.1683182,5.05554545 C17.2125,4.81663636 17.1470455,4.57118182 16.9915909,4.38463636 L16.9915909,4.38463636 Z"></path>
                </g>
            </g>
        </g>
    </g>
</svg>