<svg width="17px" height="14px" viewBox="0 0 17 14" version="1.1" xmlns="http://www.w3.org/2000/svg" xmlns:xlink="http://www.w3.org/1999/xlink">
    <g id="UUmarket-1200px" stroke="none" stroke-width="1" fill="none" fill-rule="evenodd">
        <g id="Home-UUmarket-1200px" transform="translate(-133.000000, -2611.000000)" fill="#9B9B9B">
            <g id="Group" transform="translate(21.000000, 2280.000000)">
                <g id="Group-7-Copy" transform="translate(112.000000, 331.000000)">
                    <g id="Fill-1277" transform="translate(0.750000, 0.250000)">
                        <path d="M2.46975,12 L8.25,12 C11.55825,12 14.25,9.645 14.25,6.75 C14.25,3.855 11.55825,1.5 8.25,1.5 C4.94175,1.5 2.25,3.855 2.25,6.75 C2.25,7.90275 2.676,9 3.4815,9.924 C3.7335,10.2135 3.72675,10.64625 3.46575,10.9275 L2.46975,12 Z M8.25,13.5 L0.75,13.5 C0.4515,13.5 0.1815,13.323 0.06225,13.05 C-0.057,12.77625 -0.00225,12.45825 0.20025,12.24 L1.92975,10.377 C1.15575,9.294 0.75,8.05125 0.75,6.75 C0.75,3.0285 4.1145,0 8.25,0 C12.3855,0 15.75,3.0285 15.75,6.75 C15.75,10.4715 12.3855,13.5 8.25,13.5 L8.25,13.5 Z"></path>
                    </g>
                </g>
            </g>
        </g>
    </g>
</svg>