<svg width="26px" height="15px" viewBox="0 0 26 15" version="1.1" xmlns="http://www.w3.org/2000/svg" xmlns:xlink="http://www.w3.org/1999/xlink">
    <g id="UUmarket-1200px" stroke="none" stroke-width="1" fill="none" fill-rule="evenodd">
        <g id="Home-UUmarket-1200px" transform="translate(-907.000000, -3293.000000)" fill="#FE5621">
            <g id="Directory" transform="translate(21.000000, 2890.000000)">
                <g id="Fill-1997" transform="translate(886.000000, 403.000000)">
                    <path d="M23.8415609,10.3846154 L23.6431135,10.3846154 C23.1955283,9.04384615 22.0102365,8.07692308 20.6060054,8.07692308 C19.2017742,8.07692308 18.0164824,9.04384615 17.5699757,10.3846154 L9.62237277,10.3846154 C9.17478758,9.04384615 7.98949573,8.07692308 6.58526462,8.07692308 C5.18103351,8.07692308 3.99574166,9.04384615 3.54923499,10.3846154 L2.27119054,10.3846154 L2.27119054,9.23076923 C2.27119054,7.95807692 3.23862166,6.92307692 4.42822758,6.92307692 L23.8415609,6.92307692 L23.8415609,10.3846154 Z M20.6060054,12.6923077 C20.0117417,12.6923077 19.5274868,12.1742308 19.5274868,11.5384615 C19.5274868,10.9026923 20.0117417,10.3846154 20.6060054,10.3846154 C21.2002691,10.3846154 21.6845239,10.9026923 21.6845239,11.5384615 C21.6845239,12.1742308 21.2002691,12.6923077 20.6060054,12.6923077 L20.6060054,12.6923077 Z M6.58526462,12.6923077 C5.99100091,12.6923077 5.5067461,12.1742308 5.5067461,11.5384615 C5.5067461,10.9026923 5.99100091,10.3846154 6.58526462,10.3846154 C7.17952832,10.3846154 7.66378314,10.9026923 7.66378314,11.5384615 C7.66378314,12.1742308 7.17952832,12.6923077 6.58526462,12.6923077 L6.58526462,12.6923077 Z M9.4088261,2.30769231 L14.1348942,2.30769231 L14.1348942,4.61538462 L8.33030758,4.61538462 L9.4088261,2.30769231 Z M20.6060054,4.61538462 L16.2919313,4.61538462 L16.2919313,2.30769231 L18.9882276,2.30769231 L20.6060054,4.61538462 Z M23.8415609,4.61538462 L23.3023017,4.61538462 L20.3903017,0.461538462 C20.1864617,0.170769231 19.8672202,0 19.5274868,0 L8.74230166,0 C8.33354314,0 7.96037573,0.246923077 7.7781061,0.638076923 L5.91874017,4.61538462 L4.42822758,4.61538462 C2.04901573,4.61538462 0.114153507,6.68538462 0.114153507,9.23076923 L0.114153507,11.5384615 C0.114153507,12.1753846 0.597329803,12.6923077 1.19267203,12.6923077 L3.54923499,12.6923077 C3.99574166,14.0330769 5.18103351,15 6.58526462,15 C7.98949573,15 9.17478758,14.0330769 9.62237277,12.6923077 L17.5699757,12.6923077 C18.0164824,14.0330769 19.2017742,15 20.6060054,15 C22.0102365,15 23.1955283,14.0330769 23.6431135,12.6923077 L24.9200794,12.6923077 C25.5154217,12.6923077 25.998598,12.1753846 25.998598,11.5384615 L25.998598,6.92307692 C25.998598,5.65038462 25.0311668,4.61538462 23.8415609,4.61538462 L23.8415609,4.61538462 Z"></path>
                </g>
            </g>
        </g>
    </g>
</svg>