<svg width="61px" height="16px" viewBox="0 0 61 16" version="1.1" xmlns="http://www.w3.org/2000/svg" xmlns:xlink="http://www.w3.org/1999/xlink">
    <g id="UUmarket-1200px" stroke="none" stroke-width="1" fill="none" fill-rule="evenodd">
        <g id="Home-UUmarket-1200px" transform="translate(-484.000000, -4516.000000)" fill="#D5D5D5">
            <g id="Group-2" transform="translate(0.000000, 4459.000000)">
                <g id="Group" transform="translate(20.000000, 17.000000)">
                    <g id="Payment" transform="translate(346.000000, 38.000000)">
                        <g id="Imported-Layers" transform="translate(118.000000, 2.000000)">
                            <path d="M23.0296344,4.65768276 C23.056343,4.48223448 23.2186446,4.33572414 23.4006335,4.33244138 C24.1592297,4.33161379 24.9180787,4.33244138 25.6766188,4.33191724 C25.9630548,4.32910345 26.2324434,4.53575172 26.3057726,4.80689655 C26.7472643,6.25878621 27.1912274,7.71012414 27.6324945,9.16223448 C28.6758416,7.65161379 29.7208458,6.14187586 30.7641929,4.6312 C30.8922592,4.4304 31.1365962,4.31393103 31.3764397,4.33161379 C32.1173425,4.33274483 32.8584701,4.33191724 33.5993168,4.33191724 C33.6883734,4.32910345 33.7779636,4.35613793 33.849046,4.41026207 C34.0119093,4.52750345 34.0551878,4.77437241 33.9403214,4.93798621 C31.408709,8.52968276 28.8754678,12.1203034 26.3419457,15.7106759 C26.2526924,15.8265103 26.1245981,15.9390621 25.9709466,15.9470897 C25.9897914,15.9559172 26.0276777,15.973269 26.0468034,15.9821241 C25.1618541,15.985131 24.2766238,15.9887448 23.3916464,15.9807172 C23.3259563,15.9318897 23.2470382,15.8966069 23.2001087,15.8276414 C23.0967569,15.6921931 23.0945101,15.4916414 23.2004176,15.3569931 C23.8643122,14.436469 24.5290773,13.5164966 25.1921575,12.5953655 C25.3138204,12.4306483 25.4283499,12.2604414 25.5547311,12.0988138 C25.1859788,11.0077517 24.8004319,9.92198621 24.4262592,8.83227586 C23.982296,7.55037241 23.5370971,6.26902069 23.093134,4.98703448 C23.0560341,4.88165517 23.0041054,4.77133793 23.0296344,4.65768276 L23.0296344,4.65768276 Z M16.0326367,6.52662069 C15.5021165,6.60695172 14.9994001,6.85657931 14.6232896,7.23313103 C14.2436404,7.61051034 13.99818,8.10932414 13.9133642,8.632 C13.8276496,9.1104 13.8799153,9.632 14.1537413,10.0464 C14.387715,10.4064 14.7822772,10.6464 15.2029862,10.737131 C15.8405092,10.877269 16.5325447,10.7862621 17.1029733,10.4698207 C17.5435944,10.2251034 17.9013656,9.84223448 18.117337,9.39288276 C18.3611123,8.8806069 18.462779,8.28195862 18.3015727,7.73075862 C18.1858918,7.31668966 17.9002141,6.94957241 17.5160994,6.74234483 C17.0681202,6.4974069 16.5322357,6.45495172 16.0326367,6.52662069 L16.0326367,6.52662069 Z M14.4126823,4.35202759 C15.1628812,4.10703448 15.969418,4.07508966 16.7493587,4.17106207 C17.3082726,4.24551724 17.8848237,4.3969931 18.324855,4.76057931 C18.5015359,4.90102069 18.6214296,5.09158621 18.7531188,5.27037241 C18.7865958,5.06537931 18.8169273,4.85986207 18.852314,4.65517241 C18.8778992,4.47291034 19.056518,4.32667586 19.2432251,4.33191724 C20.0024111,4.33244138 20.7617937,4.33213793 21.5209517,4.33191724 C21.6852192,4.32965517 21.8419599,4.44137931 21.893046,4.59451034 C21.9315221,4.69602759 21.9059369,4.8049931 21.889395,4.90846897 C21.4864075,7.40722759 21.0875764,9.90645517 20.6842799,12.4050207 C20.6564761,12.6336828 20.4918996,12.8372966 20.274861,12.921131 C20.14393,12.9744 19.9998554,12.9680552 19.8614259,12.9666483 C19.2253071,12.9655724 18.5891883,12.9688552 17.9533223,12.9649655 C17.7393168,12.9586759 17.5610069,12.7545379 17.5848789,12.5459586 C17.6101552,12.337131 17.6612413,12.1318897 17.6758453,11.9219862 C16.9035437,12.6949241 15.8118909,13.1357793 14.7140313,13.1713379 C14.183511,13.1854069 13.6467841,13.1349793 13.1393214,12.9771586 C12.6831975,12.8367448 12.2554673,12.5989793 11.9117385,12.2712276 C11.548575,11.9316138 11.2719406,11.5081931 11.0846436,11.0530207 C10.8166874,10.4008552 10.7318996,9.68388966 10.7948094,8.98593103 C10.8959144,7.88777931 11.3177749,6.81266207 12.0330364,5.95922759 C12.6492712,5.21602759 13.4817021,4.64333793 14.4126823,4.35202759 L14.4126823,4.35202759 Z M4.90965746,2.81906207 C4.86444107,2.89931034 4.85994751,2.99313103 4.84419199,3.08198621 C4.68497974,4.0734069 4.5252058,5.0646069 4.36506676,6.05602759 C4.88747053,6.05133793 5.41068877,6.07062069 5.93222192,6.03646897 C6.39590055,6.00253793 6.88286142,5.91153103 7.25414134,5.61853793 C7.59933057,5.35175172 7.78412799,4.93547586 7.86445028,4.52088276 C7.93098297,4.16612414 7.96754926,3.79037241 7.85431169,3.44115862 C7.77432643,3.19508966 7.59567956,2.98427586 7.36454236,2.86126897 C7.09355295,2.71506207 6.78206538,2.66427586 6.47759899,2.63837241 C6.0726174,2.60747586 5.66625967,2.61795862 5.26043554,2.616 C5.11633287,2.61188966 4.97652716,2.69464828 4.90965746,2.81906207 L4.90965746,2.81906207 Z M2.5640221,0.0240275862 C4.16456998,0.011862069 5.76537063,0.0223448276 7.36591851,0.0187862069 C7.94614871,0.0218206897 8.52775506,0.0800275862 9.08950552,0.226482759 C9.59811971,0.361986207 10.0932251,0.577131034 10.4979259,0.913931034 C10.9074291,1.24943448 11.2003527,1.71313103 11.3458315,2.21572414 C11.5421436,2.88253793 11.5149296,3.5926069 11.4017201,4.27147586 C11.2413283,5.23588966 10.9096759,6.19892414 10.2785843,6.96777931 C9.91438168,7.4129931 9.45401703,7.78212414 8.93700552,8.04331034 C8.15962063,8.44085517 7.28028821,8.60717241 6.4105046,8.6441931 C5.77525645,8.65798621 5.13939042,8.64278621 4.50380525,8.65188966 C4.2861768,8.65550345 4.07554144,8.76885517 3.95896179,8.94957241 C3.86659116,9.08223448 3.85532919,9.24584828 3.83036188,9.39977931 C3.66665608,10.4132966 3.50542173,11.4273103 3.34109807,12.4408828 C3.29026473,12.7357793 3.0082942,12.9685793 2.70360313,12.9666483 C1.94559669,12.9666483 1.18761832,12.9663724 0.429583794,12.9666483 C0.261047422,12.9721931 0.101245396,12.8579862 0.0481652855,12.7023724 C-0.0113462247,12.5401931 0.0686671271,12.3751724 0.079395488,12.2116414 C0.701696593,8.34206897 1.32177901,4.472 1.94422053,0.602510345 C1.96918785,0.296855172 2.25197284,0.0317517241 2.5640221,0.0240275862 L2.5640221,0.0240275862 Z" id="Fill-1"></path>
                            <path d="M49.8450322,6.5272 C49.3086142,6.60830345 48.8007021,6.86325517 48.4236929,7.24747586 C48.035169,7.63867586 47.7902983,8.15895172 47.7169692,8.69908966 C47.6418145,9.17522759 47.7133181,9.6921931 48.0000069,10.0927172 C48.2630764,10.4681655 48.7031077,10.6944 49.1546819,10.7641655 C49.7668163,10.8632 50.4172021,10.7597517 50.9530023,10.4486069 C51.3821367,10.2009103 51.7288145,9.82013793 51.9385511,9.37715862 C52.1664305,8.88885517 52.2652044,8.32689655 52.1337118,7.79947586 C52.0355276,7.39117241 51.7791142,7.01881379 51.4160631,6.79395862 C50.9548278,6.50344828 50.3772095,6.45053793 49.8450322,6.5272 L49.8450322,6.5272 Z M48.6485672,4.2377931 C49.2964816,4.09186207 49.9711045,4.09382069 50.6275285,4.17931034 C51.1578803,4.2566069 51.6997468,4.40662069 52.1215792,4.74537931 C52.3064328,4.88750345 52.4288821,5.08557241 52.5670589,5.26816552 C52.5997776,5.06377931 52.6306989,4.85903448 52.665861,4.65517241 C52.6913057,4.47230345 52.8689134,4.32554483 53.0568002,4.33161379 C53.8156492,4.33213793 54.575116,4.33191724 55.3345548,4.33161379 C55.5000299,4.32888276 55.6588209,4.44306207 55.7079411,4.59892414 C55.7473439,4.70651034 55.7151869,4.82124138 55.6994595,4.93053793 C55.3073126,7.36637241 54.917581,9.80281379 54.5254061,12.2386759 C54.50482,12.3478897 54.4981358,12.4615448 54.45511,12.5655724 C54.3581335,12.8041931 54.1066068,12.9707862 53.844773,12.9669793 C53.1616685,12.9663724 52.4792099,12.9669793 51.7960773,12.9666483 C51.6112238,12.973269 51.4390925,12.8342621 51.4051381,12.6571034 C51.381547,12.5779586 51.4045483,12.4968828 51.4166809,12.4182621 C51.4451588,12.2477793 51.4706036,12.0767172 51.5021146,11.9067862 C51.2051188,12.2198897 50.8420958,12.4681655 50.4590203,12.6695724 C49.8850249,12.9688552 49.2413232,13.1382621 48.5922012,13.1680552 C48.0406455,13.1917517 47.481198,13.1401931 46.9532896,12.9776828 C46.4908186,12.8345379 46.0568536,12.5934345 45.7113554,12.2579862 C45.1985847,11.7727448 44.8622141,11.1241379 44.7040129,10.4461241 C44.5264332,9.69434483 44.5639825,8.90485517 44.7470387,8.1576 C45.0525161,6.87310345 45.8422583,5.6952 46.9611533,4.95726897 C47.4715087,4.61685517 48.0473016,4.37161379 48.6485672,4.2377931 L48.6485672,4.2377931 Z M58.3681533,0.0220965517 C59.1088315,0.0165793103 59.8500994,0.0204413793 60.5913393,0.020137931 C60.8332049,0.0184551724 61.0326064,0.259889655 60.977448,0.492717241 C60.3525631,4.38104828 59.7264424,8.26896552 59.103355,12.1575448 C59.0718439,12.3156138 59.0712261,12.4850207 58.9888255,12.6290483 C58.8790985,12.8295724 58.6560497,12.9655724 58.4226938,12.9663724 C57.7590239,12.9666483 57.095326,12.9674483 56.4310101,12.9658483 C56.202541,12.9672 56.0128006,12.7401931 56.0528214,12.5203034 C56.7001179,8.47398621 57.3486501,4.42788966 57.994767,0.381268966 C58.0099328,0.193986207 58.1747901,0.0281103448 58.3681533,0.0220965517 L58.3681533,0.0220965517 Z M38.6986584,2.87561379 C38.6744213,2.952 38.6665295,3.03230345 38.6538071,3.11092414 C38.4962238,4.09268966 38.3368149,5.07426207 38.1798214,6.05602759 C38.8423117,6.04526897 39.5108683,6.09271724 40.1678541,5.98598621 C40.5909503,5.91561379 41.0182592,5.73991724 41.2904001,5.4014069 C41.611605,5.00637241 41.7164733,4.48777931 41.738913,3.99371034 C41.7534609,3.63671724 41.6625226,3.24551724 41.3782772,3.00165517 C41.1431238,2.79365517 40.8261036,2.70731034 40.5194185,2.66427586 C40.0399843,2.60002759 39.5544839,2.62016552 39.0720447,2.61657931 C38.9071593,2.61188966 38.7501938,2.72248276 38.6986584,2.87561379 L38.6986584,2.87561379 Z M36.2760428,0.0344827586 C36.4857514,0.00388965517 36.699111,0.0265103448 36.910645,0.0193103448 C38.117389,0.0198896552 39.324779,0.0193103448 40.531523,0.0193103448 C41.0764227,0.0215724138 41.6243554,0.00662068966 42.1656041,0.084137931 C42.9081077,0.180689655 43.6590649,0.401931034 44.2530566,0.865655172 C44.6143103,1.14678621 44.8955226,1.52388966 45.0652385,1.94455172 C45.3319309,2.60110345 45.3428278,3.32885517 45.2537431,4.0217931 C45.1428366,4.8121931 44.9343356,5.6 44.5421607,6.30350345 C44.1924498,6.94013793 43.6790893,7.4929931 43.051733,7.87478621 C42.331669,8.31837241 41.4898016,8.53713103 40.6491137,8.61544828 C40.1345456,8.66929655 39.6169162,8.64391724 39.1011123,8.64968276 C38.8301791,8.65274483 38.5592739,8.64311724 38.2889305,8.65462069 C37.994378,8.66573793 37.7282753,8.89575172 37.679773,9.18071724 C37.5046087,10.2617931 37.3324774,11.3434759 37.1579029,12.4246345 C37.139732,12.5241931 37.1361091,12.6295724 37.087017,12.7208552 C37.01307,12.8676138 36.8518356,12.9652966 36.6857707,12.9661241 C35.9184401,12.9674483 35.1510815,12.9661241 34.3837509,12.9669793 C34.2728444,12.9663724 34.1546639,12.9774345 34.0540364,12.9241931 C33.8958913,12.8464 33.8097274,12.6599172 33.8478946,12.4911172 C34.4728637,8.60995862 35.0953333,4.72830345 35.7178029,0.846896552 C35.7451013,0.704551724 35.7505216,0.556413793 35.80568,0.420689655 C35.8857215,0.226482759 36.0687495,0.0811034483 36.2760428,0.0344827586 L36.2760428,0.0344827586 Z" id="Fill-2"></path>
                        </g>
                    </g>
                </g>
            </g>
        </g>
    </g>
</svg>