<svg width="26px" height="23px" viewBox="0 0 26 23" version="1.1" xmlns="http://www.w3.org/2000/svg" xmlns:xlink="http://www.w3.org/1999/xlink">
    <g id="UUmarket-1200px" stroke="none" stroke-width="1" fill="none" fill-rule="evenodd">
        <g id="Home-UUmarket-1200px" transform="translate(-39.000000, -3289.000000)">
            <g id="Directory" transform="translate(21.000000, 2890.000000)">
                <g id="Group-3-Copy" transform="translate(14.000000, 394.000000)">
                    <rect id="Rectangle-1-Copy-547" x="0" y="0" width="31" height="32"></rect>
                    <g id="Fill-676" transform="translate(3.875000, 5.000000)" fill="#FE5621">
                        <path d="M21.7019375,10.3610941 L20.2746459,9.61291765 C19.8742292,9.40456471 19.3976042,9.42621176 19.0165625,9.67244706 C18.6368125,9.92003529 18.4043125,10.3543294 18.4043125,10.8238 L18.4043125,20.2943882 L8.0709792,20.2943882 L8.0709792,10.8238 C8.0709792,10.3543294 7.83977086,9.92003529 7.4587292,9.67244706 C7.07768753,9.42621176 6.6023542,9.40456471 6.20193753,9.61291765 L4.77464586,10.3610941 L3.2504792,7.16950588 L7.2107292,4.05909412 L8.82789586,4.05909412 L11.9459792,7.32509412 L11.9459792,12.1767412 L14.5293125,12.1767412 L14.5293125,7.32509412 L17.6473959,4.05909412 L19.2658542,4.05909412 L23.2261042,7.16950588 L21.7019375,10.3610941 Z M15.2862292,2.70615294 L13.2376459,4.85191765 L11.1890625,2.70615294 L15.2862292,2.70615294 Z M25.6376459,5.68262353 L20.4709792,1.6238 C20.2475209,1.44791765 19.9762709,1.35321176 19.6959792,1.35321176 L17.6473959,1.35321176 L16.7341875,0.396682353 C16.4926459,0.142329412 16.1632709,0.000270588235 15.8209792,0.000270588235 L10.6543125,0.000270588235 C10.3120209,0.000270588235 9.98393753,0.142329412 9.7411042,0.396682353 L8.82789586,1.35321176 L6.77931253,1.35321176 C6.50031253,1.35321176 6.22906253,1.44791765 6.00431253,1.6238 L0.837645864,5.68262353 C0.337770864,6.07497647 0.178895864,6.78527059 0.457895864,7.36974118 L3.0412292,12.7815059 C3.36027086,13.4498588 4.1339792,13.7231529 4.77464586,13.3862706 L5.48764586,13.0128588 L5.48764586,21.6473294 C5.48764586,22.3941529 6.06631253,23.0002706 6.77931253,23.0002706 L19.6959792,23.0002706 C20.4089792,23.0002706 20.9876459,22.3941529 20.9876459,21.6473294 L20.9876459,13.0128588 L21.7019375,13.3862706 C22.3426042,13.7218 23.1163125,13.4498588 23.4353542,12.7815059 L26.0186875,7.36974118 C26.2976875,6.78527059 26.1375209,6.07497647 25.6376459,5.68262353 L25.6376459,5.68262353 Z"></path>
                    </g>
                </g>
            </g>
        </g>
    </g>
</svg>