<svg width="44px" height="42px" viewBox="0 0 44 42" version="1.1" xmlns="http://www.w3.org/2000/svg" xmlns:xlink="http://www.w3.org/1999/xlink">
    <defs></defs>
    <g id="UUmarket-1200px" stroke="none" stroke-width="1" fill="none" fill-rule="evenodd">
        <g id="Home-UUmarket-1200px" transform="translate(-120.000000, -4602.000000)" fill="#FE5621">
            <g id="Group-2" transform="translate(0.000000, 4459.000000)">
                <g id="Group" transform="translate(20.000000, 17.000000)">
                    <g id="Group-31-Copy-3" transform="translate(100.000000, 126.000000)">
                        <g id="Group-29">
                            <path d="M29.2966969,1.75894386 L29.2966969,16.0153656 C29.2966969,18.0618914 27.6346763,19.7204781 25.584367,19.7204781 C23.5340577,19.7204781 21.8720371,18.0618914 21.8720371,16.0153656 L21.8720371,1.75894386 C21.8720371,0.859033833 22.6037072,0.128875445 23.505934,0.128875445 L27.6628,0.128875445 C28.5650268,0.128875445 29.2966969,0.859033833 29.2966969,1.75894386" id="Fill-2"></path>
                            <path d="M39.1846309,0.228100937 C37.8682598,-0.257162418 36.4643423,0.00765014058 36.4643423,1.40776167 L36.4643423,16.0358263 C36.4643423,22.3365545 31.4986928,26.9293549 25.5795588,26.9293549 C19.5728784,26.9293549 14.704301,22.2052799 14.704301,16.0358263 L14.7115588,1.40006626 C14.7115588,0.48159672 14.0057443,0.056991284 13.1706515,0.0108188379 C13.1597649,0.0103661668 13.1488784,0.00946082474 13.1375381,0.0090081537 C13.1234763,0.00855548266 13.1094144,0.00810281162 13.0953526,0.00810281162 C13.0858268,0.00765014058 13.0767546,0.00719746954 13.0672289,0.00719746954 L4.09032165,0.00719746954 C2.04001237,0.00719746954 0.377991753,1.66578416 0.377991753,3.71140459 C0.377991753,5.75747769 2.04001237,7.41606439 4.09032165,7.41606439 L7.33316701,7.41606439 C7.32953814,7.52334742 7.3272701,7.6315358 7.3272701,7.74153486 L7.3272701,16.07204 C7.3272701,26.4033512 15.8065691,34.2571937 25.5836412,34.2571937 C35.5562186,34.2571937 43.8418268,26.4359435 43.8418268,16.1014636 L43.8418268,7.74153486 C43.8418268,3.47420497 41.7706515,1.18187882 39.1846309,0.228100937" id="Fill-4"></path>
                            <path d="M43.8361113,37.9151831 C43.8361113,35.9238832 42.2185443,34.3092056 40.222668,34.3092056 C38.2272454,34.3092056 36.6092247,35.9238832 36.6092247,37.9151831 C36.6092247,39.906483 38.2272454,41.5211606 40.222668,41.5211606 C42.2185443,41.5211606 43.8361113,39.906483 43.8361113,37.9151831" id="Fill-6"></path>
                            <path d="M14.6275505,37.9151831 C14.6275505,35.9238832 13.0099835,34.3092056 11.0141072,34.3092056 C9.01868454,34.3092056 7.40111753,35.9238832 7.40111753,37.9151831 C7.40111753,39.906483 9.01868454,41.5211606 11.0141072,41.5211606 C13.0099835,41.5211606 14.6275505,39.906483 14.6275505,37.9151831" id="Fill-8"></path>
                        </g>
                    </g>
                </g>
            </g>
        </g>
    </g>
</svg>